<svg width="1280" height="720" viewBox="0 0 1280 720" fill="none" xmlns="http://www.w3.org/2000/svg">
  <defs>
    <linearGradient id="breakBg" x1="640" y1="0" x2="640" y2="720" gradientUnits="userSpaceOnUse">
      <stop stop-color="#121722"/>
      <stop offset="0.48" stop-color="#1A1823"/>
      <stop offset="1" stop-color="#24141A"/>
    </linearGradient>
    <radialGradient id="breakGlow" cx="0" cy="0" r="1" gradientUnits="userSpaceOnUse" gradientTransform="translate(676 300) rotate(90) scale(260 360)">
      <stop stop-color="#F5D98A" stop-opacity="0.96"/>
      <stop offset="1" stop-color="#F5D98A" stop-opacity="0"/>
    </radialGradient>
  </defs>
  <rect width="1280" height="720" fill="url(#breakBg)"/>
  <rect x="106" y="98" width="1068" height="524" rx="26" fill="#442E27" stroke="#D0AA69" stroke-width="8"/>
  <rect x="144" y="136" width="992" height="448" rx="14" fill="#332321"/>
  <ellipse cx="676" cy="318" rx="310" ry="208" fill="url(#breakGlow)"/>
  <rect x="474" y="180" width="332" height="242" rx="16" fill="#E7D7B3" stroke="#F7E6BC" stroke-width="6"/>
  <rect x="512" y="220" width="254" height="58" rx="12" fill="#6E1926"/>
  <text x="544" y="258" fill="#F8E9BC" font-family="Georgia, serif" font-size="34" font-weight="700">CLUE CONFIRMED</text>
  <path d="M526 324H744" stroke="#8A7458" stroke-width="5" stroke-linecap="round"/>
  <path d="M518 366H736" stroke="#8A7458" stroke-width="4" stroke-dasharray="5 10" stroke-linecap="round"/>
  <rect x="248" y="214" width="150" height="110" rx="10" fill="#D4C4A4" transform="rotate(-6 248 214)"/>
  <rect x="874" y="222" width="156" height="114" rx="10" fill="#D7C6A6" transform="rotate(5 874 222)"/>
  <rect x="320" y="424" width="182" height="122" rx="10" fill="#CDBA96" transform="rotate(4 320 424)"/>
  <rect x="820" y="416" width="194" height="130" rx="10" fill="#D9C9A7" transform="rotate(-5 820 416)"/>
  <g stroke="#8B2230" stroke-width="10" stroke-linecap="round">
    <path d="M398 274L520 302"/>
    <path d="M760 302L886 280"/>
    <path d="M450 456L580 394"/>
    <path d="M778 394L888 452"/>
  </g>
  <g fill="#D18258">
    <circle cx="398" cy="274" r="8"/>
    <circle cx="886" cy="280" r="8"/>
    <circle cx="450" cy="456" r="8"/>
    <circle cx="888" cy="452" r="8"/>
  </g>
  <rect x="0" y="0" width="1280" height="720" fill="white" fill-opacity="0.03"/>
</svg>
