<svg width="1280" height="720" viewBox="0 0 1280 720" fill="none" xmlns="http://www.w3.org/2000/svg">
  <defs>
    <linearGradient id="bg" x1="640" y1="0" x2="640" y2="720" gradientUnits="userSpaceOnUse">
      <stop stop-color="#0E1320"/>
      <stop offset="0.6" stop-color="#171824"/>
      <stop offset="1" stop-color="#261820"/>
    </linearGradient>
    <radialGradient id="lampGlow" cx="0" cy="0" r="1" gradientUnits="userSpaceOnUse" gradientTransform="translate(842 190) rotate(90) scale(260 320)">
      <stop stop-color="#F1C66D" stop-opacity="0.92"/>
      <stop offset="1" stop-color="#F1C66D" stop-opacity="0"/>
    </radialGradient>
    <linearGradient id="desk" x1="640" y1="468" x2="640" y2="720" gradientUnits="userSpaceOnUse">
      <stop stop-color="#4B3327"/>
      <stop offset="1" stop-color="#281812"/>
    </linearGradient>
  </defs>
  <rect width="1280" height="720" fill="url(#bg)"/>
  <circle cx="1080" cy="130" r="58" fill="#E7D4A4" fill-opacity="0.9"/>
  <rect x="918" y="96" width="196" height="286" rx="10" fill="#151D2B" stroke="#C9A870" stroke-opacity="0.35" stroke-width="3"/>
  <path d="M1016 96V382" stroke="#C9A870" stroke-opacity="0.22" stroke-width="3"/>
  <path d="M918 240H1114" stroke="#C9A870" stroke-opacity="0.22" stroke-width="3"/>
  <path d="M0 468H1280V720H0V468Z" fill="url(#desk)"/>
  <ellipse cx="760" cy="508" rx="252" ry="102" fill="url(#lampGlow)"/>
  <path d="M776 58L826 160H726L776 58Z" fill="#2E303A"/>
  <path d="M746 160H806L840 238H712L746 160Z" fill="#1E2028"/>
  <rect x="398" y="188" width="396" height="244" rx="16" transform="rotate(-5 398 188)" fill="#D8C6A0"/>
  <rect x="416" y="206" width="360" height="208" rx="10" transform="rotate(-5 416 206)" fill="#F2E4C3"/>
  <path d="M452 246H728" stroke="#786046" stroke-width="6" stroke-linecap="round"/>
  <path d="M442 292H738" stroke="#A48A62" stroke-width="4" stroke-linecap="round" stroke-dasharray="4 10"/>
  <path d="M436 332H732" stroke="#A48A62" stroke-width="4" stroke-linecap="round" stroke-dasharray="4 10"/>
  <path d="M430 372H726" stroke="#A48A62" stroke-width="4" stroke-linecap="round" stroke-dasharray="4 10"/>
  <rect x="520" y="254" width="154" height="46" rx="10" transform="rotate(-5 520 254)" fill="#301C20"/>
  <text x="540" y="285" fill="#F6E5B5" font-family="Georgia, serif" font-size="28" font-weight="700" transform="rotate(-5 540 285)">MURDER</text>
  <rect x="186" y="332" width="182" height="122" rx="10" transform="rotate(7 186 332)" fill="#2D262F"/>
  <rect x="202" y="348" width="150" height="90" rx="8" transform="rotate(7 202 348)" fill="#CFC3A8"/>
  <path d="M226 376H328" stroke="#6F5E4A" stroke-width="4" stroke-linecap="round"/>
  <path d="M220 402H320" stroke="#6F5E4A" stroke-width="4" stroke-linecap="round"/>
  <path d="M214 426H314" stroke="#6F5E4A" stroke-width="4" stroke-linecap="round"/>
  <path d="M980 486L1116 522" stroke="#7E212C" stroke-width="8" stroke-linecap="round"/>
  <path d="M1028 554L1148 476" stroke="#7E212C" stroke-width="8" stroke-linecap="round"/>
  <rect x="954" y="454" width="86" height="66" rx="8" fill="#E0D2B4"/>
  <rect x="1094" y="496" width="92" height="72" rx="8" fill="#C8BCA1"/>
  <circle cx="984" cy="466" r="7" fill="#D08A58"/>
  <circle cx="1130" cy="508" r="7" fill="#D08A58"/>
  <rect x="0" y="0" width="1280" height="720" fill="black" fill-opacity="0.14"/>
</svg>
