<svg width="1280" height="720" viewBox="0 0 1280 720" fill="none" xmlns="http://www.w3.org/2000/svg">
  <defs>
    <linearGradient id="boardBg" x1="640" y1="0" x2="640" y2="720" gradientUnits="userSpaceOnUse">
      <stop stop-color="#121923"/>
      <stop offset="0.48" stop-color="#1B1722"/>
      <stop offset="1" stop-color="#241519"/>
    </linearGradient>
    <linearGradient id="boardWood" x1="640" y1="90" x2="640" y2="630" gradientUnits="userSpaceOnUse">
      <stop stop-color="#6C4A35"/>
      <stop offset="1" stop-color="#3B261D"/>
    </linearGradient>
  </defs>
  <rect width="1280" height="720" fill="url(#boardBg)"/>
  <rect x="116" y="92" width="1048" height="536" rx="24" fill="url(#boardWood)" stroke="#C7A56C" stroke-width="8"/>
  <rect x="152" y="128" width="976" height="464" rx="12" fill="#2F211E"/>
  <rect x="216" y="170" width="260" height="162" rx="10" fill="#D6C7A7" transform="rotate(-4 216 170)"/>
  <rect x="538" y="150" width="226" height="142" rx="10" fill="#C8B89A" transform="rotate(3 538 150)"/>
  <rect x="804" y="206" width="228" height="156" rx="10" fill="#DACBAA" transform="rotate(-6 804 206)"/>
  <rect x="286" y="394" width="232" height="148" rx="10" fill="#C9B897" transform="rotate(5 286 394)"/>
  <rect x="668" y="390" width="286" height="168" rx="10" fill="#D7C6A3" transform="rotate(-2 668 390)"/>
  <g stroke="#7E212C" stroke-width="9" stroke-linecap="round">
    <path d="M410 256L636 214"/>
    <path d="M666 246L900 278"/>
    <path d="M920 330L812 446"/>
    <path d="M420 470L796 476"/>
    <path d="M346 282L400 430"/>
  </g>
  <g fill="#C56545">
    <circle cx="420" cy="256" r="8"/>
    <circle cx="636" cy="214" r="8"/>
    <circle cx="900" cy="278" r="8"/>
    <circle cx="812" cy="446" r="8"/>
    <circle cx="400" cy="430" r="8"/>
  </g>
  <rect x="584" y="446" width="182" height="72" rx="12" fill="#2B1C22" stroke="#F0D89E" stroke-width="4"/>
  <text x="610" y="488" fill="#F8E9BC" font-family="Georgia, serif" font-size="34" font-weight="700">CRIME ID 1080</text>
  <path d="M262 222H432" stroke="#6E5B44" stroke-width="4" stroke-linecap="round"/>
  <path d="M250 252H420" stroke="#6E5B44" stroke-width="4" stroke-linecap="round"/>
  <path d="M826 264H986" stroke="#6E5B44" stroke-width="4" stroke-linecap="round"/>
  <path d="M814 294H974" stroke="#6E5B44" stroke-width="4" stroke-linecap="round"/>
  <rect x="0" y="0" width="1280" height="720" fill="black" fill-opacity="0.1"/>
</svg>
