<svg width="1280" height="720" viewBox="0 0 1280 720" fill="none" xmlns="http://www.w3.org/2000/svg">
  <defs>
    <linearGradient id="vaultBg" x1="640" y1="0" x2="640" y2="720" gradientUnits="userSpaceOnUse">
      <stop stop-color="#111722"/>
      <stop offset="0.55" stop-color="#1A1B27"/>
      <stop offset="1" stop-color="#2A1A1E"/>
    </linearGradient>
    <radialGradient id="vaultGlow" cx="0" cy="0" r="1" gradientUnits="userSpaceOnUse" gradientTransform="translate(642 310) rotate(90) scale(220 320)">
      <stop stop-color="#E9D39C" stop-opacity="0.78"/>
      <stop offset="1" stop-color="#E9D39C" stop-opacity="0"/>
    </radialGradient>
  </defs>
  <rect width="1280" height="720" fill="url(#vaultBg)"/>
  <rect x="40" y="116" width="260" height="428" rx="16" fill="#2A2026"/>
  <rect x="334" y="116" width="260" height="428" rx="16" fill="#2B2227"/>
  <rect x="628" y="116" width="260" height="428" rx="16" fill="#2A2026"/>
  <rect x="922" y="116" width="260" height="428" rx="16" fill="#2B2227"/>
  <g stroke="#5A463B" stroke-width="4">
    <path d="M80 188H262"/>
    <path d="M80 282H262"/>
    <path d="M80 376H262"/>
    <path d="M80 470H262"/>
    <path d="M374 188H556"/>
    <path d="M374 282H556"/>
    <path d="M374 376H556"/>
    <path d="M374 470H556"/>
    <path d="M668 188H850"/>
    <path d="M668 282H850"/>
    <path d="M668 376H850"/>
    <path d="M668 470H850"/>
    <path d="M962 188H1144"/>
    <path d="M962 282H1144"/>
    <path d="M962 376H1144"/>
    <path d="M962 470H1144"/>
  </g>
  <g fill="#D6BA81">
    <circle cx="242" cy="234" r="7"/>
    <circle cx="536" cy="328" r="7"/>
    <circle cx="830" cy="422" r="7"/>
    <circle cx="1124" cy="234" r="7"/>
  </g>
  <ellipse cx="640" cy="324" rx="280" ry="176" fill="url(#vaultGlow)"/>
  <rect x="482" y="164" width="316" height="370" rx="20" fill="#CDBF9D" stroke="#F0D89E" stroke-width="6"/>
  <rect x="508" y="194" width="264" height="52" rx="12" fill="#312026"/>
  <text x="538" y="228" fill="#F5E4B6" font-family="Georgia, serif" font-size="28" font-weight="700">REPORT ARCHIVE</text>
  <path d="M536 278H742" stroke="#8E7658" stroke-width="5" stroke-linecap="round"/>
  <path d="M526 320H752" stroke="#8E7658" stroke-width="4" stroke-dasharray="6 10" stroke-linecap="round"/>
  <path d="M522 362H748" stroke="#8E7658" stroke-width="4" stroke-dasharray="6 10" stroke-linecap="round"/>
  <path d="M518 404H744" stroke="#8E7658" stroke-width="4" stroke-dasharray="6 10" stroke-linecap="round"/>
  <rect x="560" y="438" width="164" height="44" rx="10" fill="#7E212C"/>
  <text x="588" y="468" fill="#F5E4B6" font-family="Georgia, serif" font-size="24" font-weight="700">CRIME SCENE</text>
  <rect x="0" y="0" width="1280" height="720" fill="black" fill-opacity="0.12"/>
</svg>
