<svg width="1280" height="720" viewBox="0 0 1280 720" fill="none" xmlns="http://www.w3.org/2000/svg">
  <defs>
    <linearGradient id="initiativeBg" x1="640" y1="0" x2="640" y2="720" gradientUnits="userSpaceOnUse">
      <stop stop-color="#101620"/>
      <stop offset="0.52" stop-color="#171720"/>
      <stop offset="1" stop-color="#21141A"/>
    </linearGradient>
    <radialGradient id="initiativeGlow" cx="0" cy="0" r="1" gradientUnits="userSpaceOnUse" gradientTransform="translate(360 228) rotate(90) scale(220 240)">
      <stop stop-color="#E6C77B" stop-opacity="0.84"/>
      <stop offset="1" stop-color="#E6C77B" stop-opacity="0"/>
    </radialGradient>
  </defs>
  <rect width="1280" height="720" fill="url(#initiativeBg)"/>
  <rect x="0" y="436" width="1280" height="284" fill="#2F1D18"/>
  <ellipse cx="354" cy="230" rx="240" ry="176" fill="url(#initiativeGlow)"/>
  <path d="M306 54L364 168H248L306 54Z" fill="#262731"/>
  <path d="M272 168H340L388 274H224L272 168Z" fill="#191B24"/>
  <rect x="188" y="326" width="340" height="190" rx="16" transform="rotate(-8 188 326)" fill="#D8C7A4"/>
  <rect x="218" y="354" width="278" height="134" rx="12" transform="rotate(-8 218 354)" fill="#F2E4C3"/>
  <path d="M254 388H452" stroke="#8C7656" stroke-width="5" stroke-linecap="round"/>
  <path d="M246 426H444" stroke="#A48A62" stroke-width="4" stroke-dasharray="5 10" stroke-linecap="round"/>
  <path d="M238 462H436" stroke="#A48A62" stroke-width="4" stroke-dasharray="5 10" stroke-linecap="round"/>
  <rect x="606" y="212" width="494" height="290" rx="20" fill="#39272C" stroke="#C7A56C" stroke-width="6"/>
  <path d="M656 282L834 232" stroke="#8B2230" stroke-width="8" stroke-linecap="round"/>
  <path d="M838 232L994 346" stroke="#8B2230" stroke-width="8" stroke-linecap="round"/>
  <path d="M700 412L948 370" stroke="#8B2230" stroke-width="8" stroke-linecap="round"/>
  <rect x="650" y="210" width="112" height="86" rx="10" fill="#DCCDAF"/>
  <rect x="812" y="178" width="118" height="96" rx="10" fill="#CDBE9E"/>
  <rect x="956" y="316" width="104" height="94" rx="10" fill="#D9C8A6"/>
  <rect x="714" y="376" width="126" height="102" rx="10" fill="#D9C8A6"/>
  <circle cx="704" cy="226" r="8" fill="#D18456"/>
  <circle cx="842" cy="232" r="8" fill="#D18456"/>
  <circle cx="980" cy="350" r="8" fill="#D18456"/>
  <circle cx="734" cy="414" r="8" fill="#D18456"/>
  <rect x="834" y="502" width="222" height="66" rx="12" fill="#1E1520" stroke="#E9D39C" stroke-width="4"/>
  <text x="862" y="544" fill="#F4E2B1" font-family="Georgia, serif" font-size="30" font-weight="700">CHOOSE THE NEXT LEAD</text>
  <rect x="0" y="0" width="1280" height="720" fill="black" fill-opacity="0.12"/>
</svg>
